<svg width="325" height="80" viewBox="0 0 325 80" fill="none" xmlns="http://www.w3.org/2000/svg">
<g clip-path="url(#clip0_1_125)">
<path d="M90.2382 37.3333V29.3333H92.908H95.5778V32V34.6667H100.917H106.257V36.0889V37.3333H107.681H109.105V41.4222V45.5111H107.681H106.257V46.9333V48H99.4934H92.73V46.5778V45.1555H91.3061H89.8823V37.3333H90.2382ZM103.587 41.2444V37.3333H99.4934H95.3998V41.4222V45.5111H99.4934H103.587V41.2444Z" fill="#1976D2"/>
<path d="M116.402 32V29.3333H119.072H121.742V32V34.6667H124.411H127.081V36.0889V37.3333H124.411H121.742V42.6667V48H119.072H116.402V42.6667V37.3333H113.732H111.062V35.9111V34.4889H113.732H116.402V32Z" fill="#1976D2"/>
<path d="M129.751 38.5778V34.4889H132.421H135.09V38.5778V42.6667H139.184H143.278V38.5778V34.4889H145.947H148.617V41.2444V48H147.193H145.769V49.4222V50.8444H139.006H132.243V49.4222V48H137.582H142.922V46.5778V45.1555H137.582H132.243V43.7333V42.6667H130.819H129.395V38.5778H129.751Z" fill="#1976D2"/>
<path d="M151.109 45.3333V42.6667H153.779H156.449V45.3333V48H153.779H151.109V45.3333Z" fill="#1976D2"/>
<path d="M161.966 35.9111V34.4889H169.975H177.985V35.9111V37.3333H171.221H164.458V41.4222V45.5111H171.221H177.985V46.9333V48H169.975H161.966V46.5778V45.1555H160.542H159.118V41.0667V37.3333H160.542H161.966V35.9111Z" fill="#1976D2"/>
<path d="M183.324 35.9111V34.4889H190.088H196.851V35.9111V37.3333H198.275H199.699V41.4222V45.5111H198.275H196.851V46.9333V48H190.088H183.324V46.5778V45.1555H181.9H180.476V41.0667V37.3333H181.9H183.324V35.9111ZM194.003 41.2444V37.3333H189.91H185.816V41.4222V45.5111H189.91H194.003V41.2444Z" fill="#1976D2"/>
<path d="M202.013 42.6667V34.6667H210.022H218.031V36.0889V37.3333H219.455H220.879V40V42.6667H219.455H218.031V44.0889V45.5111H212.692H207.352V48V50.6667H204.682H202.013V42.6667ZM215.361 40V37.3333H211.268H207.174V40V42.6667H211.268H215.361V40Z" fill="#1976D2"/>
<path d="M223.371 42.6667V34.6667H231.38H239.389V36.0889V37.3333H240.813H242.237V40V42.6667H240.813H239.389V44.0889V45.5111H234.05H228.71V48V50.6667H226.041H223.371V42.6667ZM236.72 40V37.3333H232.626H228.532V40V42.6667H232.626H236.72V40Z" fill="#1976D2"/>
<path d="M247.399 35.9111V34.4889H254.162H260.926V35.9111V37.3333H262.349H263.773V40V42.6667H257.01H250.246V44.0889V45.5111H255.586H260.926V46.9333V48H254.162H247.399V46.5778V45.1555H245.975H244.551V41.0667V37.3333H245.975H247.399V35.9111ZM258.078 38.5778V37.3333H253.984H249.89V38.7555V40.1778H253.984H258.078V38.5778Z" fill="#1976D2"/>
<path d="M271.427 32V29.3333H274.096H276.766V32V34.6667H279.436H282.106V36.0889V37.3333H279.436H276.766V42.6667V48H274.096H271.427V42.6667V37.3333H268.757H266.087V35.9111V34.4889H268.757H271.427V32Z" fill="#1976D2"/>
<path d="M287.623 35.9111V34.4889H294.387H301.15V35.9111V37.3333H302.574H303.998V40V42.6667H297.234H290.471V44.0889V45.5111H295.811H301.15V46.9333V48H294.387H287.623V46.5778V45.1555H286.199H284.775V41.0667V37.3333H286.199H287.623V35.9111ZM298.302 38.5778V37.3333H294.209H290.115V38.7555V40.1778H294.209H298.302V38.5778Z" fill="#1976D2"/>
<path d="M308.981 35.9111V34.4889H316.991H325V35.9111V37.3333H318.237H311.473V41.4222V45.5111H318.237H325V46.9333V48H316.991H308.981V46.5778V45.1555H307.557H306.134V41.0667V37.3333H307.557H308.981V35.9111Z" fill="#1976D2"/>
<path d="M16.1966 37.3333V41.2444V45.3333H20.2903H24.2059V41.2444V37.3333H20.2903H16.1966Z" fill="#1976D2"/>
<path d="M0 0V80H80.0931V0H0ZM29.5455 41.2444V45.3333H28.1216H26.6977V46.7556V48H19.9343H13.5268V46.5778V45.1556H12.2809H10.8571V37.3333V29.3333H13.5268H16.1966V32V34.6667H21.5361H26.8757V36.0889V37.3333H28.2996H29.7234V41.2444H29.5455ZM47.6999 35.9111V37.3333H45.0301H42.3603V42.6667V48H39.6906H37.0208V42.6667V37.3333H34.351H31.6813V35.9111V34.4889H34.351H37.0208V32V29.3333H39.6906H42.3603V32V34.6667H45.0301H47.6999V35.9111ZM69.236 41.2444V48H67.8121H66.3883V49.4222V50.8444H59.6249H52.8614V49.4222V48H58.201H63.5405V46.5778V45.1556H58.201H52.8614V43.7333V42.6667H51.4376H50.0137V38.5778V34.4889H52.6835H55.3532V38.5778V42.6667H59.4469H63.5405V38.5778V34.4889H66.2103H68.8801V41.2444H69.236Z" fill="#1976D2"/>
</g>
<defs>
<clipPath id="clip0_1_125">
<rect width="325" height="80" fill="white"/>
</clipPath>
</defs>
</svg>
