<svg id="Layer_1" data-name="Layer 1" xmlns="http://www.w3.org/2000/svg" xmlns:xlink="http://www.w3.org/1999/xlink" viewBox="0 0 192 192"><defs><style>.cls-1{fill:url(#linear-gradient);}.cls-2{fill:#fff;}</style><linearGradient id="linear-gradient" x1="42.58" y1="65.82" x2="162.04" y2="133.31" gradientUnits="userSpaceOnUse"><stop offset="0.15" stop-color="#17273e"/><stop offset="0.27" stop-color="#153040"/><stop offset="0.47" stop-color="#114746"/><stop offset="0.71" stop-color="#096d50"/><stop offset="0.97" stop-color="#009b5c"/></linearGradient></defs><circle class="cls-1" cx="96" cy="96" r="96"/><path class="cls-2" d="M71.09,93c0,17.52-9.82,27.34-21.42,26.16-4.86-.47-9.12-3.32-13.14-7.46v3l-.24,4.62H30.61V48.6l5.92-.24V75c3.91-4.38,8.88-7.69,13.61-8.4C63.16,65.05,71.09,78,71.09,93Zm-6.15,0c0-12.31-6-22.25-15.75-21-4.14.48-8.87,4.5-12.66,8.76v25.45c4.14,4,8.52,7.22,12.66,7.57C58.54,114.52,64.94,106.83,64.94,93Z"/><path class="cls-2" d="M106.36,113.46v5.8h-3.67c-9.59,0-13.61-4.86-13.61-15.27l.11-29.35H82.57V69h6.62V53l5.92-.36V69h10.06v5.68H95.11L95,102.81c0,6.39,1.19,10.53,8.05,10.65Z"/><path class="cls-2" d="M161.39,67.18v55.15c0,13.14-8.88,21.31-21.78,21.31-7.57,0-14.2-3.91-16.69-7L126,132.4c2.13,2.48,7.57,5.68,13.61,5.68,8.88,0,15.86-5.68,15.86-16V111.21c-3.79,3.9-8.88,7.22-14.79,8.05-11.49,1.42-19.65-6.51-19.65-18.35V67.42l5.92-.36V99.37c0,10.42,6.39,15.74,15.15,14.21,5.09-1,10.06-4.74,13.37-9.47V67.18Z"/></svg>