<svg id="Layer_1" data-name="Layer 1" xmlns="http://www.w3.org/2000/svg" viewBox="0 0 128 128"><defs><style>.cls-1{fill:#2b6bb3;}.cls-2{fill:#fff;}</style></defs><polygon class="cls-1" points="25.94 59.73 25.94 66.13 25.94 72.53 32.34 72.53 38.74 72.53 38.74 66.13 38.74 59.73 32.34 59.73 25.94 59.73"/><path class="cls-1" d="M0,0V128H128V0ZM47.27,66.13v6.4H43V76.8H21.67V72.53H17.41V46.93h8.53v8.54H43v4.26h4.26Zm29-8.53v2.13H67.76V76.8H59.22V59.73H50.69V55.47h8.53V46.93h8.54v8.54h8.53Zm34.3,8.53V76.8h-4.26v4.27H85V76.8h17.07V72.53H85V68.27H80.73V55.47h8.53v12.8h12.8V55.47h8.53Z"/><path class="cls-2" d="M25.94,46.93H17.41v25.6h4.26V76.8H43V72.53h4.26V59.73H43V55.47H25.94V46.93Zm6.4,12.8h6.4v12.8H25.94V59.73Z"/><polygon class="cls-2" points="89.26 55.47 84.99 55.47 80.73 55.47 80.73 61.87 80.73 68.27 82.86 68.27 84.99 68.27 84.99 70.4 84.99 72.53 93.53 72.53 102.06 72.53 102.06 74.67 102.06 76.8 93.53 76.8 84.99 76.8 84.99 78.93 84.99 81.07 95.66 81.07 106.33 81.07 106.33 78.93 106.33 76.8 108.46 76.8 110.59 76.8 110.59 66.13 110.59 55.47 106.33 55.47 102.06 55.47 102.06 61.87 102.06 68.27 95.66 68.27 89.26 68.27 89.26 61.87 89.26 55.47"/><polygon class="cls-2" points="67.76 46.93 63.49 46.93 59.22 46.93 59.22 51.2 59.22 55.47 54.95 55.47 50.69 55.47 50.69 57.6 50.69 59.73 54.95 59.73 59.22 59.73 59.22 68.27 59.22 76.8 63.49 76.8 67.76 76.8 67.76 68.27 67.76 59.73 72.02 59.73 76.29 59.73 76.29 57.6 76.29 55.47 72.02 55.47 67.76 55.47 67.76 51.2 67.76 46.93"/></svg>